<svg xmlns="http://www.w3.org/2000/svg" viewBox="0 0 298.24 334.89"><defs><style>.cls-1{fill:#ffc719;}.cls-2{fill:#ffc819;}</style></defs><g id="Layer_2" data-name="Layer 2"><g id="Layer_1-2" data-name="Layer 1"><path class="cls-1" d="M45.52,334.14c2.54-2.64,5.11-5.22,7.62-7.94,9.83-10.64,19.44-21.75,27.65-35.33,11-18.24,17.66-39.56,18.38-64.7.58-19.87-2.84-37.67-12.1-52.23-3.2-5-6.41-10-9.7-14.9-5.56-8.23-11.22-16.3-15.79-25.94a35.44,35.44,0,0,1-3.64-13.43c-.35-6,1.1-11,4.08-14.9C67,98.22,72.82,94.24,78.89,91c9.41-5,18.87-9.77,28.3-14.64a3.41,3.41,0,0,0,1.51-1.3c-1.3.55-2.6,1-3.89,1.65C94.86,81.45,84.89,86,75,91a41.18,41.18,0,0,0-13.31,10.7c-5.61,6.7-7.31,15.75-4.59,25.95,2.12,7.94,5.8,14.28,9.58,20.39q7.68,12.4,15.72,24.28c12.62,18.57,16,41.22,12.77,66.79-2.86,23-10.75,41.5-22.41,56-7.35,9.17-15.36,17.12-23.11,25.53-4.1,4.47-8.29,8.76-12.45,13.12-.36.37-.78.88-1.17.88a73.92,73.92,0,0,1-11.37-.48l1.88-1.56c9.23-7.74,18.68-14.94,27.65-23.34a131,131,0,0,0,29.6-41.81,96.43,96.43,0,0,0,8.74-39.54,102.32,102.32,0,0,0-6.82-37.55,112.11,112.11,0,0,0-17.93-31.24,83.06,83.06,0,0,1-14.95-26.79,46.34,46.34,0,0,1-2.64-16.68c.36-8.61,3.24-15.21,8.06-19a96.3,96.3,0,0,1,16.89-10.9c15-7.35,30.28-13.74,45.31-21.15,9.08-4.48,17.95-10,26.82-15.38,2.1-1.28,4-3.76,5.68-6.2,2.44-3.54,2.72-7.95,1.16-12.53-1.89-5.57-5-9.23-8.32-12.65-5.55-5.74-11.8-8.77-18.24-11.11-5.89-2.14-11.79-4.23-17.75-6.58A10.58,10.58,0,0,1,112.1,0C120,1.3,128,2,135.8,4.09,143,6,150.07,9,157.09,12.13c4.65,2,8.84,5.69,12.25,11.21,5.74,9.27,5.95,19.07.32,28.49a39.37,39.37,0,0,1-5.86,8.05c-7.16,6.9-14.48,13.43-21.75,20.06-5.16,4.71-10.46,9.09-15.48,14.14a44.28,44.28,0,0,0-6.95,9.64c-2.78,5-2.49,10,.38,14.93,3,5.11,6.91,8,10.87,10.81,8.53,6,17.64,9.19,26.61,13.1,22.9,10,45.81,19.92,67.77,34.26,15.11,9.87,29.55,21.56,42.4,37.47,9.6,11.9,18.1,25.29,24.13,42a105,105,0,0,1,6.46,36.16,102.26,102.26,0,0,1-7.31,38.93c-1.25,3-2.7,4-5,3,.33-1.09.64-2.19,1-3.24a104,104,0,0,0,6-36.85,115,115,0,0,0-8.3-39.39,138.65,138.65,0,0,0-29.43-46.09c-15.07-15.71-31.6-26.75-48.63-36.32-15.66-8.8-31.84-14.9-47.79-22.15a156.14,156.14,0,0,1-34.56-21.06,42.4,42.4,0,0,1-8.24-9.28c-3.47-5.16-3.3-10.66-.15-16.34,3.45-6.2,7.85-10.47,12.4-14.38,6.74-5.8,13.54-11.41,20.31-17.1a3.84,3.84,0,0,0,1.25-1.75l-5.38,4.33c-6.74,5.41-13.6,10.52-20.18,16.34A55.74,55.74,0,0,0,115,102.07c-4.22,6.43-4.11,13.22-.14,20.06,3.51,6,8.07,9.8,12.72,13.2a216.23,216.23,0,0,0,44.28,24.79c21.56,9,42.66,20.13,62.67,35.58a151.43,151.43,0,0,1,33.51,35,108.32,108.32,0,0,1,18.09,47.69,99.48,99.48,0,0,1-2.36,39.74c-1.3,4.77-2.84,9.39-4.16,14.15-.53,1.93-1.26,2.47-2.6,2.47q-48.69-.09-97.4,0h-3.89l3.42-4.59A116.87,116.87,0,0,0,199,288.73q9.1-35.33-7.53-63.43c-7.4-12.53-16.52-21.57-26.09-29.64-12.66-10.67-26-19-39.31-27.6-11-7.14-21.89-14.81-31.54-25.92a55.35,55.35,0,0,1-9.81-15c-3.57-8.42-2.91-16.23,2.62-21.61a80.27,80.27,0,0,1,14-10.46c12.3-7.62,24.76-14.67,37.07-22.3,7.67-4.75,15-10.64,20.8-20A33.23,33.23,0,0,0,164,41.58c-7.48,17-19,25.43-30.88,32.76C120.49,82.11,107.69,89,95,96.38A51.88,51.88,0,0,0,87.09,102c-7.19,6.25-9,16.51-5.25,27.81a37.73,37.73,0,0,0,7.55,12.77A155.08,155.08,0,0,0,122,172c12.11,7.93,24.34,15.42,35.7,25.77A99.12,99.12,0,0,1,179.17,225q16.61,31.26,2.87,65.77c-6,15.19-14.57,26.62-23.63,37.4-4.09,4.86-8.25,6.83-13.48,6.77-32.52-.35-65.05-.18-97.57-.19H45.67Z"/><path class="cls-2" d="M185.41,83.3c.84,5.46,1.78,10.92,2.47,16.4.3,2.42,1.26,3.44,3.74,3.82,5.38.81,10.71,2,16.06,3.06a20.09,20.09,0,0,1,2,.63c-6.16,1.14-11.74,2.33-17.36,3.15-2.44.36-3.21,1.47-3.57,3.73-.83,5.22-1.95,10.4-3,15.59a15.68,15.68,0,0,1-.62,1.81c-1.46-6.41-2.87-12.33-4.15-18.29a2.82,2.82,0,0,0-2.69-2.58c-5.69-1-11.34-2.21-17-3.69,5.64-1.16,11.28-2.38,16.95-3.45,1.67-.31,2.53-.88,2.89-2.7,1.16-5.83,2.56-11.62,3.87-17.42Z"/><path class="cls-2" d="M35.6,208.4c.9,7.82,2,15.63,2.64,23.48.31,3.46,1.61,5,5.12,5.63,7.63,1.44,15.15,3.42,22.71,5.2.67.16,1.3.47,2.77,1C60,245,52,246.41,44,247.29c-3.49.38-4.65,1.91-5.28,5.12-1.46,7.38-3.32,14.69-5,22a24.56,24.56,0,0,1-1,2.55c-1.75-9.2-3.44-17.71-4.95-26.25-.4-2.3-1.31-3.32-3.69-3.82-8-1.72-16-3.75-24-6.15,8.1-1.36,16.19-2.8,24.31-4,2.4-.36,3.65-1.13,4.27-3.7,2-8.23,4.25-16.39,6.42-24.58Z"/><path class="cls-2" d="M112.71,30.17c.48,3.15,1,6.28,1.42,9.44a2.14,2.14,0,0,0,2.15,2.19c3.1.47,6.16,1.16,9.24,1.76.27.06.53.17,1.13.36-3.54.66-6.75,1.34-10,1.82-1.4.21-1.85.84-2.06,2.15-.48,3-1.12,6-1.7,9-.06.27-.18.52-.36,1-.84-3.68-1.65-7.09-2.39-10.52a1.64,1.64,0,0,0-1.55-1.49c-3.27-.57-6.52-1.26-9.78-2.12,3.25-.66,6.49-1.37,9.75-2a1.71,1.71,0,0,0,1.66-1.55c.67-3.36,1.48-6.68,2.23-10Z"/></g></g></svg>